# xmcd CD database file
#
# Track frame offsets:
#	150
#	60565
#	123995
#	146725
#	188351
#	220508
#
# Disc length: 3929 seconds
#
# Revision: 0
# Processed by: cddbd v1.5.2PL0 Copyright (c) Steve Scherf et al.
# Submitted via: CDex 1.70beta2
#
DISCID=4d0f5706
DTITLE=Eve Beglarian - Tell the Birds
DYEAR=2006
DGENRE=New Age
TTITLE0=the marriage of heaven
TTITLE1=Creating the World
TTITLE2=Robin Redbreast
TTITLE3=Wonder counselor
TTITLE4=Landscaping for Privacy
TTITLE5=FlamingO
EXTD=YEAR: 2006
EXTT0=
EXTT1=
EXTT2=
EXTT3=
EXTT4=
EXTT5=
PLAYORDER=
